<?xml version="1.0" standalone="no"?>
<!DOCTYPE svg PUBLIC "-//W3C//DTD SVG 20010904//EN"
 "http://www.w3.org/TR/2001/REC-SVG-20010904/DTD/svg10.dtd">
<svg version="1.0" xmlns="http://www.w3.org/2000/svg"
 width="360.000000pt" height="360.000000pt" viewBox="0 0 360.000000 360.000000"
 preserveAspectRatio="xMidYMid meet">

<g transform="translate(0.000000,360.000000) scale(0.100000,-0.100000)"
fill="var(--primary-500)" stroke="none">
<path d="M393 3475 c-71 -50 -50 -250 47 -452 46 -93 156 -248 186 -260 8 -3
-7 -30 -42 -76 -138 -183 -213 -399 -234 -677 -36 -471 126 -899 470 -1240
183 -182 382 -327 763 -555 l198 -118 47 22 c75 37 438 257 557 339 308 211
480 378 622 607 149 239 219 472 230 761 13 346 -67 635 -239 862 l-48 64 46
51 c147 162 241 392 232 566 -3 66 -6 76 -32 98 -42 36 -71 26 -221 -75 -162
-110 -220 -143 -315 -177 -125 -44 -179 -44 -365 5 -198 51 -330 70 -505 70
-181 0 -282 -14 -489 -66 -96 -24 -193 -44 -216 -44 -109 0 -257 64 -449 194
-171 117 -202 130 -243 101z m392 -452 c44 -23 121 -53 170 -68 228 -67 285
-87 350 -124 194 -110 321 -264 431 -526 25 -60 49 -113 53 -117 4 -4 28 43
54 106 83 198 188 354 304 449 113 92 209 138 406 192 216 59 305 104 407 207
l60 61 -15 -44 c-23 -65 -60 -122 -111 -173 -67 -67 -112 -95 -295 -185 -148
-73 -259 -142 -204 -127 94 24 206 14 291 -25 75 -35 164 -130 206 -219 47
-99 61 -164 60 -279 -1 -302 -226 -559 -505 -578 l-78 -6 27 -28 c14 -15 54
-40 87 -56 54 -24 74 -28 157 -28 87 0 101 3 168 34 57 27 88 50 138 104 35
38 64 67 64 65 0 -23 -51 -154 -95 -243 -96 -194 -265 -398 -507 -611 -179
-158 -605 -494 -625 -494 -5 0 -25 22 -46 48 -65 87 -228 234 -457 416 -339
269 -482 417 -587 602 -49 87 -94 189 -109 249 -7 27 -1 23 50 -33 42 -45 79
-72 134 -99 73 -36 80 -38 176 -38 89 0 108 3 158 27 32 15 70 39 85 55 l28
28 -75 6 c-140 12 -254 71 -356 182 -109 122 -160 267 -151 437 15 317 237
535 498 493 35 -6 66 -9 68 -7 8 7 -141 95 -236 138 -149 68 -189 93 -259 159
-44 41 -74 81 -99 129 -19 39 -35 76 -35 82 0 7 30 -18 68 -54 43 -42 95 -80
147 -107z"/>
</g>
<g transform="translate(0.000000,360.000000) scale(0.100000,-0.100000)"
fill="var(--background-100)" stroke="none">
<!-- Eye Left -->
<path d="M1119 2456 c-169 -60 -225 -302 -104 -444 121 -140 337 -101 412 76
23 54 21 166 -4 222 -57 127 -184 189 -304 146z"/>
<!-- Eye Right -->
<path d="M2318 2461 c-74 -24 -139 -91 -166 -170 -7 -19 -12 -64 -12 -100 0
-201 197 -327 362 -233 181 102 177 390 -6 484 -44 23 -136 32 -178 19z"/>
<!-- Nose -->
<path d="M1763 2073 c-12 -2 -40 -24 -62 -48 -54 -59 -86 -78 -136 -85 l-41
-5 130 -207 c72 -114 133 -207 136 -208 3 0 64 93 137 208 l132 207 -38 5
c-46 7 -83 30 -125 78 -28 31 -83 64 -103 61 -4 -1 -18 -4 -30 -6z"/>
</g>
</svg>
